<svg version="1.1" id="Layer_1" xmlns="http://www.w3.org/2000/svg" xmlns:xlink="http://www.w3.org/1999/xlink" x="0px" y="0px"
	 width="100%" viewBox="0 0 512 512" enable-background="new 0 0 512 512" xml:space="preserve">
<path fill="#000000" opacity="1.000000" stroke="none" 
	d="
M300.000000,513.000000 
	C200.024277,513.000000 100.548546,513.000000 1.036411,513.000000 
	C1.036411,342.399261 1.036411,171.798492 1.036411,1.098866 
	C171.559067,1.098866 342.118225,1.098866 512.838684,1.098866 
	C512.838684,171.666550 512.838684,342.333252 512.838684,513.000000 
	C442.131805,513.000000 371.315887,513.000000 300.000000,513.000000 
M256.970917,166.190887 
	C256.028015,158.221207 250.575592,153.354721 242.348953,152.239426 
	C244.930954,147.177460 247.512970,142.115509 250.659378,136.662674 
	C253.093750,132.378647 255.475876,128.063889 257.973724,123.817184 
	C262.748688,115.698990 266.835083,107.595642 265.083649,97.518623 
	C263.762817,89.918945 257.122955,81.074463 250.954575,81.064713 
	C221.311890,81.017860 191.668945,81.137001 161.103333,81.048149 
	C158.112976,81.032570 155.042755,80.586166 152.154495,81.121475 
	C149.211685,81.666885 145.707794,82.433907 143.734726,84.396149 
	C135.517426,92.568359 134.031357,105.818321 139.409988,115.839638 
	C146.082916,128.272476 153.113678,140.513290 159.205795,152.983093 
	C157.130478,153.613449 155.055145,154.243805 152.273254,154.990723 
	C145.510895,159.738617 142.574860,167.477097 145.310867,174.694489 
	C147.363968,180.110443 152.362396,185.720947 161.240524,185.103592 
	C167.824814,184.645737 174.475159,185.137543 180.494415,185.761795 
	C160.723343,187.239822 142.002029,192.948776 124.139557,201.087769 
	C100.796684,211.723877 80.433830,226.533722 63.331039,245.971313 
	C46.851234,264.700867 34.618248,285.611389 26.358458,309.098450 
	C19.613409,328.278351 16.759548,348.100739 16.223715,368.202545 
	C15.962429,378.004700 17.746027,387.897095 19.005785,397.697021 
	C22.138388,422.066071 30.670195,444.548767 43.718910,465.281281 
	C48.797379,473.350189 54.544243,480.998474 59.057941,488.980804 
	C45.128712,488.980804 31.199478,488.980804 17.327915,488.980804 
	C17.327915,494.663177 17.327915,499.726257 17.327915,504.691559 
	C177.352158,504.691559 337.048309,504.691559 496.661194,504.691559 
	C496.661194,499.312592 496.661194,494.250824 496.661194,489.000000 
	C474.510376,489.000000 452.697784,489.021454 430.885254,488.994781 
	C401.231537,488.958466 371.577850,488.885376 342.227722,488.223816 
	C345.868866,483.145996 349.510010,478.068176 354.065277,472.998901 
	C364.312256,472.998901 374.559235,472.998901 384.833466,472.998901 
	C384.833466,469.934967 384.833466,467.461792 384.981628,464.063110 
	C384.981628,405.798889 384.981628,347.534668 384.981628,289.166290 
	C379.283600,289.166290 374.146332,289.166290 368.332703,289.017578 
	C367.876007,288.958527 367.419312,288.899506 366.911682,288.130219 
	C363.891541,282.769287 360.871368,277.408386 357.770294,271.362854 
	C353.467468,265.234283 349.164642,259.105713 345.141846,252.358536 
	C384.529877,213.556381 408.965454,166.026596 425.572327,113.796097 
	C439.578247,117.746071 453.246124,121.624786 466.929413,125.448242 
	C472.674316,127.053520 478.967438,122.147514 477.890503,116.593948 
	C477.048157,112.250183 475.314087,108.079338 473.970703,103.038795 
	C472.709015,98.538979 471.471497,94.032219 470.181488,89.540527 
	C464.469482,69.651772 458.646545,49.794189 453.065094,29.868916 
	C450.631744,21.181923 445.249054,18.724895 437.957947,23.600626 
	C413.539978,39.929504 389.251617,56.454586 364.702667,72.583466 
	C358.972412,76.348282 359.543549,85.292320 365.791138,88.081078 
	C376.325806,92.783463 386.499969,98.289093 396.881012,103.343346 
	C399.247955,104.495728 400.767975,105.793129 399.763702,108.615952 
	C396.956268,116.507065 394.680817,124.641975 391.219910,132.236099 
	C379.732849,157.441589 362.361755,178.057236 340.527374,194.941788 
	C329.353546,203.582520 317.319275,210.831406 303.793488,215.445251 
	C298.126282,212.306366 292.459106,209.167465 286.787628,205.551422 
	C286.599060,205.211472 286.324768,205.115036 285.495697,205.129486 
	C285.495697,205.129486 285.026764,204.996185 284.844421,204.532440 
	C284.615448,204.210922 284.318878,204.126266 283.363800,204.005539 
	C282.583679,203.671036 281.803589,203.336517 280.863953,202.511612 
	C280.558411,202.424088 280.252869,202.336563 279.454193,202.131592 
	C279.289337,202.094376 279.124512,202.057175 278.702759,201.467484 
	C278.125488,201.398956 277.548218,201.330444 276.370636,201.003448 
	C275.584778,200.682220 274.798889,200.360992 273.680756,199.395599 
	C265.662476,196.587753 257.778320,193.273422 249.590683,191.105179 
	C240.168488,188.610016 230.477905,187.128265 221.846451,185.024826 
	C227.796204,185.016541 233.819916,184.408356 239.679626,185.130569 
	C250.370300,186.448227 259.168121,177.261490 256.970917,166.190887 
M424.083099,233.019745 
	C419.147736,233.019745 414.212372,233.019745 409.281372,233.019745 
	C409.281372,313.283905 409.281372,392.986115 409.281372,472.709595 
	C419.972137,472.709595 430.378876,472.709595 440.833466,472.709595 
	C440.833466,469.943359 440.833466,467.466003 440.981628,464.063110 
	C440.981628,387.132416 440.981628,310.201691 440.981628,233.166290 
	C435.283478,233.166290 430.146271,233.166290 424.083099,233.019745 
M480.083099,185.019745 
	C475.147522,185.019745 470.211975,185.019745 465.280426,185.019745 
	C465.280426,281.283661 465.280426,376.985016 465.280426,472.709778 
	C475.970642,472.709778 486.377899,472.709778 496.833466,472.709778 
	C496.833466,469.942871 496.833466,467.465759 496.981628,464.063110 
	C496.981628,371.132507 496.981628,278.201904 496.981628,185.166290 
	C491.283508,185.166290 486.146301,185.166290 480.083099,185.019745 
z"/>
<path fill="#44BC59" opacity="1.000000" stroke="none" 
	d="
M353.151184,472.990356 
	C349.510010,478.068176 345.868866,483.145996 341.619141,488.594177 
	C264.504486,488.975098 187.998428,488.986115 111.492378,488.989594 
	C110.663712,488.989655 109.835037,488.891113 108.834091,488.559418 
	C88.307053,463.313171 74.466675,435.263031 68.333672,403.513489 
	C64.223129,382.233917 63.683502,360.878021 67.415100,339.555908 
	C75.478729,293.480743 97.368675,255.394394 133.747086,225.706573 
	C160.415863,203.942642 190.986908,192.642685 225.222702,192.336700 
	C240.124878,192.203506 255.076050,194.342422 269.327728,199.551453 
	C270.757935,200.074203 272.445099,199.893829 274.013031,200.039780 
	C274.798889,200.360992 275.584778,200.682220 276.880463,201.310669 
	C277.913422,201.751923 278.436584,201.885956 278.959717,202.019974 
	C279.124512,202.057175 279.289337,202.094376 279.842407,202.365601 
	C280.451782,202.818771 280.716064,202.952896 281.023468,203.002014 
	C281.803589,203.336517 282.583679,203.671036 283.798645,204.314850 
	C284.457184,204.835068 284.721588,204.959076 285.026764,204.996185 
	C285.026764,204.996185 285.495697,205.129486 285.833862,205.357162 
	C286.345703,205.778809 286.552307,205.926712 286.791901,206.028580 
	C292.459106,209.167465 298.126282,212.306366 303.755371,216.052734 
	C290.880493,221.118362 278.037109,225.557465 265.209869,230.042908 
	C258.985596,232.219421 257.047424,234.974930 257.001099,241.469482 
	C256.941803,249.776138 256.887085,258.082825 256.501953,266.257385 
	C234.962097,251.898895 211.720642,246.171463 186.414627,250.081848 
	C171.627289,252.366852 157.709793,257.149353 145.633209,267.008911 
	C144.586670,267.502350 143.823944,267.866669 143.182556,268.381958 
	C114.601532,291.344757 101.734497,320.945679 105.936913,357.539642 
	C111.232124,403.649384 152.162125,440.320923 198.572998,441.036774 
	C213.325867,441.264313 227.266937,438.015930 240.911194,433.182526 
	C240.963654,446.708679 240.963654,459.738129 240.963654,472.680115 
	C252.110260,472.680115 262.342255,472.680115 272.833191,472.680115 
	C272.833191,469.908722 272.833191,467.453949 272.895752,464.534302 
	C273.025757,445.275330 273.093262,426.481232 273.408142,407.502869 
	C286.410645,392.921082 293.943115,376.171112 296.524597,357.413208 
	C296.843201,359.732941 296.988617,361.722076 296.989441,363.711304 
	C297.003571,398.137665 296.999969,432.563995 297.000244,466.990356 
	C297.000244,468.900665 297.000244,470.810974 297.000244,472.683716 
	C308.079803,472.683716 318.322083,472.683716 328.833191,472.683716 
	C328.833191,469.913666 328.833191,467.456421 328.895752,464.534302 
	C328.958282,424.535706 328.958282,385.001984 328.958282,345.166809 
	C323.234894,345.166809 318.116608,345.166809 312.535645,345.104187 
	C307.104645,345.027008 302.136383,345.012421 297.106812,344.542480 
	C296.036133,336.721191 295.026703,329.355316 294.056305,321.730957 
	C294.129303,321.301514 294.163239,321.130585 294.534302,320.899963 
	C295.914124,320.337738 297.004822,319.914978 297.992523,319.320984 
	C318.153015,307.197357 336.628235,292.960571 352.768677,275.767639 
	C354.181091,274.263092 356.143982,273.275299 357.851196,272.047485 
	C360.871368,277.408386 363.891541,282.769287 366.479492,288.549164 
	C361.799530,288.968109 357.551788,288.968109 353.000183,288.968109 
	C353.000183,291.782074 353.000183,293.761658 353.000183,295.741272 
	C353.000183,334.354919 352.983643,372.968536 353.006897,411.582184 
	C353.019257,432.051605 353.100861,452.520966 353.151184,472.990356 
z"/>
<path fill="#2D9739" opacity="1.000000" stroke="none" 
	d="
M273.846893,199.717682 
	C272.445099,199.893829 270.757935,200.074203 269.327728,199.551453 
	C255.076050,194.342422 240.124878,192.203506 225.222702,192.336700 
	C190.986908,192.642685 160.415863,203.942642 133.747086,225.706573 
	C97.368675,255.394394 75.478729,293.480743 67.415100,339.555908 
	C63.683502,360.878021 64.223129,382.233917 68.333672,403.513489 
	C74.466675,435.263031 88.307053,463.313171 108.367401,488.622742 
	C92.044205,488.922943 76.015419,488.880646 59.986637,488.838348 
	C54.544243,480.998474 48.797379,473.350189 43.718910,465.281281 
	C30.670195,444.548767 22.138388,422.066071 19.005785,397.697021 
	C17.746027,387.897095 15.962429,378.004700 16.223715,368.202545 
	C16.759548,348.100739 19.613409,328.278351 26.358458,309.098450 
	C34.618248,285.611389 46.851234,264.700867 63.331039,245.971313 
	C80.433830,226.533722 100.796684,211.723877 124.139557,201.087769 
	C142.002029,192.948776 160.723343,187.239822 181.247787,185.407562 
	C194.968735,185.104355 207.936325,185.155365 220.903900,185.206360 
	C230.477905,187.128265 240.168488,188.610016 249.590683,191.105179 
	C257.778320,193.273422 265.662476,196.587753 273.846893,199.717682 
z"/>
<path fill="#FFC238" opacity="1.000000" stroke="none" 
	d="
M256.830383,266.389496 
	C256.887085,258.082825 256.941803,249.776138 257.001099,241.469482 
	C257.047424,234.974930 258.985596,232.219421 265.209869,230.042908 
	C278.037109,225.557465 290.880493,221.118362 303.930206,216.364227 
	C317.319275,210.831406 329.353546,203.582520 340.527374,194.941788 
	C362.361755,178.057236 379.732849,157.441589 391.219910,132.236099 
	C394.680817,124.641975 396.956268,116.507065 399.763702,108.615952 
	C400.767975,105.793129 399.247955,104.495728 396.881012,103.343346 
	C386.499969,98.289093 376.325806,92.783463 365.791138,88.081078 
	C359.543549,85.292320 358.972412,76.348282 364.702667,72.583466 
	C389.251617,56.454586 413.539978,39.929504 437.957947,23.600626 
	C445.249054,18.724895 450.631744,21.181923 453.065094,29.868916 
	C458.646545,49.794189 464.469482,69.651772 470.181488,89.540527 
	C471.471497,94.032219 472.709015,98.538979 473.594360,103.492874 
	C470.290680,103.833702 467.238892,104.214165 464.459747,103.513344 
	C456.556305,101.520325 448.763428,99.088585 440.928284,96.825165 
	C431.495239,94.100143 423.409332,97.970757 420.134216,107.251137 
	C411.126587,132.775421 399.893311,157.212662 385.448334,180.146774 
	C369.169769,205.992081 349.944275,229.404587 325.472839,247.755219 
	C309.398468,259.809082 291.905762,269.971893 275.044800,280.976196 
	C267.253906,286.060944 262.845917,285.330841 257.080872,277.577606 
	C256.955841,273.544617 256.893127,269.967072 256.830383,266.389496 
z"/>
<path fill="#FFC239" opacity="1.000000" stroke="none" 
	d="
M59.522285,488.909576 
	C76.015419,488.880646 92.044205,488.922943 108.539680,488.901917 
	C109.835037,488.891113 110.663712,488.989655 111.492378,488.989594 
	C187.998428,488.986115 264.504486,488.975098 341.467346,488.896301 
	C371.577850,488.885376 401.231537,488.958466 430.885254,488.994781 
	C452.697784,489.021454 474.510376,489.000000 496.661194,489.000000 
	C496.661194,494.250824 496.661194,499.312592 496.661194,504.691559 
	C337.048309,504.691559 177.352158,504.691559 17.327915,504.691559 
	C17.327915,499.726257 17.327915,494.663177 17.327915,488.980804 
	C31.199478,488.980804 45.128712,488.980804 59.522285,488.909576 
z"/>
<path fill="#44BC59" opacity="1.000000" stroke="none" 
	d="
M162.026093,81.197212 
	C191.668945,81.137001 221.311890,81.017860 250.954575,81.064713 
	C257.122955,81.074463 263.762817,89.918945 265.083649,97.518623 
	C266.835083,107.595642 262.748688,115.698990 257.973724,123.817184 
	C255.475876,128.063889 253.093750,132.378647 249.902252,136.844376 
	C232.021942,137.016876 214.898468,137.062943 197.775650,136.976547 
	C188.377609,136.929108 179.518295,134.037506 173.693329,126.837921 
	C167.185226,118.794006 162.061462,109.565941 156.849182,100.555916 
	C151.702408,91.659126 153.282303,86.703033 162.026093,81.197212 
z"/>
<path fill="#FFC239" opacity="1.000000" stroke="none" 
	d="
M496.833466,464.988617 
	C496.833466,467.465759 496.833466,469.942871 496.833466,472.709778 
	C486.377899,472.709778 475.970642,472.709778 465.280426,472.709778 
	C465.280426,376.985016 465.280426,281.283661 465.280426,185.019745 
	C470.211975,185.019745 475.147522,185.019745 480.544006,185.551117 
	C481.003357,273.058075 480.997681,360.033661 481.005463,447.009247 
	C481.006470,458.092407 486.226166,463.982513 496.833466,464.988617 
z"/>
<path fill="#F3A607" opacity="1.000000" stroke="none" 
	d="
M257.143127,278.033020 
	C262.845917,285.330841 267.253906,286.060944 275.044800,280.976196 
	C291.905762,269.971893 309.398468,259.809082 325.472839,247.755219 
	C349.944275,229.404587 369.169769,205.992081 385.448334,180.146774 
	C399.893311,157.212662 411.126587,132.775421 420.134216,107.251137 
	C423.409332,97.970757 431.495239,94.100143 440.928284,96.825165 
	C448.763428,99.088585 456.556305,101.520325 464.459747,103.513344 
	C467.238892,104.214165 470.290680,103.833702 473.597107,103.889313 
	C475.314087,108.079338 477.048157,112.250183 477.890503,116.593948 
	C478.967438,122.147514 472.674316,127.053520 466.929413,125.448242 
	C453.246124,121.624786 439.578247,117.746071 425.572327,113.796097 
	C408.965454,166.026596 384.529877,213.556381 344.662720,252.704605 
	C343.265564,253.718887 342.333466,254.368668 341.431671,255.058090 
	C329.084015,264.497559 316.874359,274.125031 304.341125,283.311127 
	C297.815247,288.094147 290.720520,292.100983 283.544434,296.599182 
	C280.229248,298.562683 277.251068,300.383392 274.275665,302.208679 
	C266.366852,307.060272 261.597198,305.887909 257.072662,297.511047 
	C257.094482,290.707001 257.118805,284.369995 257.143127,278.033020 
z"/>
<path fill="#FFD55D" opacity="1.000000" stroke="none" 
	d="
M496.907532,464.525879 
	C486.226166,463.982513 481.006470,458.092407 481.005463,447.009247 
	C480.997681,360.033661 481.003357,273.058075 481.006989,185.624390 
	C486.146301,185.166290 491.283508,185.166290 496.981628,185.166290 
	C496.981628,278.201904 496.981628,371.132507 496.907532,464.525879 
z"/>
<path fill="#FFC239" opacity="1.000000" stroke="none" 
	d="
M440.833466,464.988617 
	C440.833466,467.466003 440.833466,469.943359 440.833466,472.709595 
	C430.378876,472.709595 419.972137,472.709595 409.281372,472.709595 
	C409.281372,392.986115 409.281372,313.283905 409.281372,233.019745 
	C414.212372,233.019745 419.147736,233.019745 424.544006,233.551117 
	C425.003479,305.225189 424.993591,376.367920 425.009918,447.510620 
	C425.012360,458.072449 430.441925,464.003052 440.833466,464.988617 
z"/>
<path fill="#FFD55D" opacity="1.000000" stroke="none" 
	d="
M440.907532,464.525879 
	C430.441925,464.003052 425.012360,458.072449 425.009918,447.510620 
	C424.993591,376.367920 425.003479,305.225189 425.006989,233.624390 
	C430.146271,233.166290 435.283478,233.166290 440.981628,233.166290 
	C440.981628,310.201691 440.981628,387.132416 440.907532,464.525879 
z"/>
<path fill="#FFC239" opacity="1.000000" stroke="none" 
	d="
M353.608215,472.994629 
	C353.100861,452.520966 353.019257,432.051605 353.006897,411.582184 
	C352.983643,372.968536 353.000183,334.354919 353.000183,295.741272 
	C353.000183,293.761658 353.000183,291.782074 353.000183,288.968109 
	C357.551788,288.968109 361.799530,288.968109 366.504944,288.904297 
	C367.419312,288.899506 367.876007,288.958527 368.668762,289.550049 
	C369.003448,342.559448 368.990845,395.036407 369.010071,447.513336 
	C369.013916,458.072113 374.443481,464.003418 384.833466,464.988617 
	C384.833466,467.461792 384.833466,469.934967 384.833466,472.998901 
	C374.559235,472.998901 364.312256,472.998901 353.608215,472.994629 
z"/>
<path fill="#FFD55D" opacity="1.000000" stroke="none" 
	d="
M384.907532,464.525879 
	C374.443481,464.003418 369.013916,458.072113 369.010071,447.513336 
	C368.990845,395.036407 369.003448,342.559448 369.006958,289.624390 
	C374.146332,289.166290 379.283600,289.166290 384.981628,289.166290 
	C384.981628,347.534668 384.981628,405.798889 384.907532,464.525879 
z"/>
<path fill="#2D9739" opacity="1.000000" stroke="none" 
	d="
M161.564713,81.122681 
	C153.282303,86.703033 151.702408,91.659126 156.849182,100.555916 
	C162.061462,109.565941 167.185226,118.794006 173.693329,126.837921 
	C179.518295,134.037506 188.377609,136.929108 197.775650,136.976547 
	C214.898468,137.062943 232.021942,137.016876 249.620056,137.039810 
	C247.512970,142.115509 244.930954,147.177460 241.715820,152.603607 
	C214.051743,152.924210 187.020798,152.880615 159.989868,152.837036 
	C153.113678,140.513290 146.082916,128.272476 139.409988,115.839638 
	C134.031357,105.818321 135.517426,92.568359 143.734726,84.396149 
	C145.707794,82.433907 149.211685,81.666885 152.154495,81.121475 
	C155.042755,80.586166 158.112976,81.032570 161.564713,81.122681 
z"/>
<path fill="#2E9739" opacity="1.000000" stroke="none" 
	d="
M283.882751,296.458435 
	C290.720520,292.100983 297.815247,288.094147 304.341125,283.311127 
	C316.874359,274.125031 329.084015,264.497559 341.431671,255.058090 
	C342.333466,254.368668 343.265564,253.718887 344.522705,253.013916 
	C349.164642,259.105713 353.467468,265.234283 357.810730,271.705170 
	C356.143982,273.275299 354.181091,274.263092 352.768677,275.767639 
	C336.628235,292.960571 318.153015,307.197357 297.992523,319.320984 
	C297.004822,319.914978 295.914124,320.337738 294.454102,320.519135 
	C290.652100,312.284821 287.267426,304.371613 283.882751,296.458435 
z"/>
<path fill="#FFC239" opacity="1.000000" stroke="none" 
	d="
M221.375183,185.115601 
	C207.936325,185.155365 194.968735,185.104355 181.548615,185.129852 
	C174.475159,185.137543 167.824814,184.645737 161.240524,185.103592 
	C152.362396,185.720947 147.363968,180.110443 145.310867,174.694489 
	C142.574860,167.477097 145.510895,159.738617 152.765640,155.276611 
	C156.262375,165.489365 160.979141,168.993469 171.425644,168.997330 
	C196.686401,169.006653 221.947617,169.072403 247.207336,168.910278 
	C250.418137,168.889664 253.621063,167.644089 256.827637,166.966019 
	C259.168121,177.261490 250.370300,186.448227 239.679626,185.130569 
	C233.819916,184.408356 227.796204,185.016541 221.375183,185.115601 
z"/>
<path fill="#FFD55D" opacity="1.000000" stroke="none" 
	d="
M256.899292,166.578461 
	C253.621063,167.644089 250.418137,168.889664 247.207336,168.910278 
	C221.947617,169.072403 196.686401,169.006653 171.425644,168.997330 
	C160.979141,168.993469 156.262375,165.489365 153.118927,155.218338 
	C155.055145,154.243805 157.130478,153.613449 159.597839,152.910065 
	C187.020798,152.880615 214.051743,152.924210 241.546143,152.902557 
	C250.575592,153.354721 256.028015,158.221207 256.899292,166.578461 
z"/>
<path fill="#2D9739" opacity="1.000000" stroke="none" 
	d="
M278.831238,201.743729 
	C278.436584,201.885956 277.913422,201.751923 277.180603,201.439911 
	C277.548218,201.330444 278.125488,201.398956 278.831238,201.743729 
z"/>
<path fill="#2D9739" opacity="1.000000" stroke="none" 
	d="
M286.789764,205.790009 
	C286.552307,205.926712 286.345703,205.778809 286.068420,205.423477 
	C286.324768,205.115036 286.599060,205.211472 286.789764,205.790009 
z"/>
<path fill="#2D9739" opacity="1.000000" stroke="none" 
	d="
M284.935608,204.764313 
	C284.721588,204.959076 284.457184,204.835068 284.094116,204.451340 
	C284.318878,204.126266 284.615448,204.210922 284.935608,204.764313 
z"/>
<path fill="#2D9739" opacity="1.000000" stroke="none" 
	d="
M280.943726,202.756805 
	C280.716064,202.952896 280.451782,202.818771 280.088989,202.424332 
	C280.252869,202.336563 280.558411,202.424088 280.943726,202.756805 
z"/>
<path fill="#CCF7C7" opacity="1.000000" stroke="none" 
	d="
M257.080872,277.577606 
	C257.118805,284.369995 257.094482,290.707001 257.040161,297.977112 
	C257.011017,308.056396 256.862823,317.205688 257.054901,326.347839 
	C257.245209,335.408081 264.976288,339.532806 272.695740,334.878448 
	C279.807861,330.590332 286.910431,326.286377 294.017242,321.989410 
	C295.026703,329.355316 296.036133,336.721191 297.047699,344.983398 
	C296.794586,349.614044 296.539337,353.348328 296.284088,357.082642 
	C293.943115,376.171112 286.410645,392.921082 273.383331,407.064026 
	C273.073273,398.670532 272.760925,390.519928 273.104889,382.397125 
	C273.298492,377.824707 271.651978,376.531860 267.401703,376.944427 
	C263.942993,377.280151 260.434814,377.106110 256.487366,377.102905 
	C251.147964,377.047699 246.269760,377.047699 240.810486,377.047699 
	C240.810486,389.492706 240.810486,401.182800 240.353973,412.886475 
	C227.465637,413.114868 214.995361,413.709106 203.481415,409.107483 
	C205.513718,408.944366 207.110916,408.837097 209.263367,408.692535 
	C207.294907,401.945099 210.756454,399.486511 216.177307,396.762054 
	C233.235306,388.189087 238.159637,366.034607 227.041092,350.505341 
	C220.573776,341.472473 211.587738,337.321503 200.551788,336.925751 
	C191.880585,336.614746 185.368332,329.961487 185.030075,321.652191 
	C184.700211,313.548737 190.673767,306.362427 198.744003,305.154144 
	C206.697983,303.963257 214.112976,308.990509 216.472351,317.189056 
	C216.822083,318.404327 217.105560,319.638702 217.391296,320.753448 
	C222.691605,320.753448 227.637436,320.753448 233.092361,320.753448 
	C232.230103,308.703552 227.402695,299.173035 216.930710,293.617340 
	C211.602448,290.790558 206.855316,288.729919 209.227448,281.283691 
	C203.511230,281.283691 198.454590,281.283691 192.770599,281.283691 
	C194.894424,288.327606 190.774216,290.567871 185.478745,293.406860 
	C173.523300,299.816315 168.158585,310.622437 169.202209,324.138824 
	C170.200958,337.074097 179.578110,348.225494 191.979446,351.649902 
	C195.304672,352.568115 198.863632,352.676483 202.326752,353.050842 
	C209.116653,353.784790 214.439819,358.205872 216.348114,364.798462 
	C218.133957,370.968018 215.838425,377.763763 210.639099,381.699554 
	C205.398575,385.666565 198.438095,386.056824 192.805145,382.689484 
	C187.718475,379.648682 185.541962,374.771240 184.762482,369.390167 
	C179.298325,369.390167 174.242004,369.390167 168.847809,369.390167 
	C170.067352,382.801147 175.935379,392.707977 188.067123,397.906647 
	C192.267639,399.706635 193.785019,401.753571 192.495483,405.889099 
	C180.216827,400.775513 169.965714,393.469482 160.632980,384.382568 
	C134.163574,358.610413 125.349129,316.225189 139.983185,281.060303 
	C141.946350,276.342926 143.975204,271.652893 145.973633,266.950195 
	C157.709793,257.149353 171.627289,252.366852 186.414627,250.081848 
	C211.720642,246.171463 234.962097,251.898895 256.501953,266.257385 
	C256.893127,269.967072 256.955841,273.544617 257.080872,277.577606 
z"/>
<path fill="#ABE4A3" opacity="1.000000" stroke="none" 
	d="
M145.633224,267.008911 
	C143.975204,271.652893 141.946350,276.342926 139.983185,281.060303 
	C125.349129,316.225189 134.163574,358.610413 160.632980,384.382568 
	C169.965714,393.469482 180.216827,400.775513 192.563049,406.311798 
	C193.929291,407.532043 194.811295,408.740479 195.854614,408.901062 
	C198.209488,409.263580 200.644119,409.108093 203.046295,409.163330 
	C214.995361,413.709106 227.465637,413.114868 240.417099,413.364807 
	C240.910751,420.114929 240.884750,426.400360 240.858749,432.685791 
	C227.266937,438.015930 213.325867,441.264313 198.572998,441.036774 
	C152.162125,440.320923 111.232124,403.649384 105.936913,357.539642 
	C101.734497,320.945679 114.601532,291.344757 143.182556,268.381958 
	C143.823944,267.866669 144.586670,267.502350 145.633224,267.008911 
z"/>
<path fill="#FFC239" opacity="1.000000" stroke="none" 
	d="
M296.524597,357.413208 
	C296.539337,353.348328 296.794586,349.614044 297.108948,345.438782 
	C302.136383,345.012421 307.104645,345.027008 312.536072,345.561676 
	C312.999695,379.893982 312.984131,413.706207 313.010162,447.518433 
	C313.018280,458.064484 318.424530,463.976685 328.833191,464.999176 
	C328.833191,467.456421 328.833191,469.913666 328.833191,472.683716 
	C318.322083,472.683716 308.079803,472.683716 297.000244,472.683716 
	C297.000244,470.810974 297.000244,468.900665 297.000244,466.990356 
	C296.999969,432.563995 297.003571,398.137665 296.989441,363.711304 
	C296.988617,361.722076 296.843201,359.732941 296.524597,357.413208 
z"/>
<path fill="#FFD55D" opacity="1.000000" stroke="none" 
	d="
M328.895752,464.534302 
	C318.424530,463.976685 313.018280,458.064484 313.010162,447.518433 
	C312.984131,413.706207 312.999695,379.893982 312.998779,345.624268 
	C318.116608,345.166809 323.234894,345.166809 328.958282,345.166809 
	C328.958282,385.001984 328.958282,424.535706 328.895752,464.534302 
z"/>
<path fill="#FFC239" opacity="1.000000" stroke="none" 
	d="
M240.911194,433.182526 
	C240.884750,426.400360 240.910751,420.114929 240.873627,413.351196 
	C240.810486,401.182800 240.810486,389.492706 240.810486,377.047699 
	C246.269760,377.047699 251.147964,377.047699 256.501038,377.559875 
	C256.984344,401.388367 256.959595,424.704712 257.016754,448.020874 
	C257.041382,458.055145 262.662506,464.000397 272.833191,464.999176 
	C272.833191,467.453949 272.833191,469.908722 272.833191,472.680115 
	C262.342255,472.680115 252.110260,472.680115 240.963654,472.680115 
	C240.963654,459.738129 240.963654,446.708679 240.911194,433.182526 
z"/>
<path fill="#FFD55D" opacity="1.000000" stroke="none" 
	d="
M272.895752,464.534302 
	C262.662506,464.000397 257.041382,458.055145 257.016754,448.020874 
	C256.959595,424.704712 256.984344,401.388367 256.962250,377.615082 
	C260.434814,377.106110 263.942993,377.280151 267.401703,376.944427 
	C271.651978,376.531860 273.298492,377.824707 273.104889,382.397125 
	C272.760925,390.519928 273.073273,398.670532 273.135925,407.248322 
	C273.093262,426.481232 273.025757,445.275330 272.895752,464.534302 
z"/>
<path fill="#ABE4A3" opacity="1.000000" stroke="none" 
	d="
M294.056305,321.730957 
	C286.910431,326.286377 279.807861,330.590332 272.695740,334.878448 
	C264.976288,339.532806 257.245209,335.408081 257.054901,326.347839 
	C256.862823,317.205688 257.011017,308.056396 257.042664,298.444183 
	C261.597198,305.887909 266.366852,307.060272 274.275665,302.208679 
	C277.251068,300.383392 280.229248,298.562683 283.544434,296.599182 
	C287.267426,304.371613 290.652100,312.284821 294.116974,320.578857 
	C294.163239,321.130585 294.129303,321.301514 294.056305,321.730957 
z"/>
<path fill="#2F983B" opacity="1.000000" stroke="none" 
	d="
M203.481415,409.107483 
	C200.644119,409.108093 198.209488,409.263580 195.854614,408.901062 
	C194.811295,408.740479 193.929291,407.532043 192.906494,406.376556 
	C193.785019,401.753571 192.267639,399.706635 188.067123,397.906647 
	C175.935379,392.707977 170.067352,382.801147 168.847809,369.390167 
	C174.242004,369.390167 179.298325,369.390167 184.762482,369.390167 
	C185.541962,374.771240 187.718475,379.648682 192.805145,382.689484 
	C198.438095,386.056824 205.398575,385.666565 210.639099,381.699554 
	C215.838425,377.763763 218.133957,370.968018 216.348114,364.798462 
	C214.439819,358.205872 209.116653,353.784790 202.326752,353.050842 
	C198.863632,352.676483 195.304672,352.568115 191.979446,351.649902 
	C179.578110,348.225494 170.200958,337.074097 169.202209,324.138824 
	C168.158585,310.622437 173.523300,299.816315 185.478745,293.406860 
	C190.774216,290.567871 194.894424,288.327606 192.770599,281.283691 
	C198.454590,281.283691 203.511230,281.283691 209.227448,281.283691 
	C206.855316,288.729919 211.602448,290.790558 216.930710,293.617340 
	C227.402695,299.173035 232.230103,308.703552 233.092361,320.753448 
	C227.637436,320.753448 222.691605,320.753448 217.391296,320.753448 
	C217.105560,319.638702 216.822083,318.404327 216.472351,317.189056 
	C214.112976,308.990509 206.697983,303.963257 198.744003,305.154144 
	C190.673767,306.362427 184.700211,313.548737 185.030075,321.652191 
	C185.368332,329.961487 191.880585,336.614746 200.551788,336.925751 
	C211.587738,337.321503 220.573776,341.472473 227.041092,350.505341 
	C238.159637,366.034607 233.235306,388.189087 216.177307,396.762054 
	C210.756454,399.486511 207.294907,401.945099 209.263367,408.692535 
	C207.110916,408.837097 205.513718,408.944366 203.481415,409.107483 
z"/>
</svg>